<?xml version="1.0" encoding="UTF-8" standalone="no"?>
<!DOCTYPE svg PUBLIC "-//W3C//DTD SVG 1.1//EN" "http://www.w3.org/Graphics/SVG/1.1/DTD/svg11.dtd">
<svg width="100%" height="100%" viewBox="0 0 439 235" version="1.1" xmlns="http://www.w3.org/2000/svg" xmlns:xlink="http://www.w3.org/1999/xlink" xml:space="preserve" xmlns:serif="http://www.serif.com/" style="fill-rule:evenodd;clip-rule:evenodd;stroke-linejoin:round;stroke-miterlimit:2;">
    <g>
        <path d="M45.28,0.511C46.781,0.633 46.685,0.545 48.137,0.064C60.18,0.059 60.105,0.091 72.143,0.12C73.608,0.623 73.513,0.7 75.051,0.591L76.111,0.931C77.121,0.665 78.131,0.399 79.142,0.133C98.003,-0.108 100.064,-0.168 104.065,1.278C104.62,2.917 104.968,2.555 105.91,3.285C107.143,5.002 108.16,8.893 108.19,9.13C108.461,11.727 108.292,11.66 109.093,14.148C109.14,16.768 109.31,16.694 110.113,19.141C111.453,24.565 111.109,24.64 111.308,25.082C112.158,26.966 112.112,26.962 112.203,27.114C112.487,29.239 112.413,29.173 113.29,31.077C113.632,31.739 113.973,32.401 114.315,33.063C114.359,33.228 114.933,34.123 114.991,34.213C119.001,40.469 121.108,40.18 123.156,41.087C123.595,41.457 123.667,42.315 127.183,43.064C127.846,43.403 128.51,43.743 129.173,44.082C129.808,44.462 130.442,44.843 131.077,45.223C131.44,45.516 131.803,45.808 132.167,46.101C133.693,47.484 136.82,50.681 137.217,51.087C137.518,51.443 137.818,51.8 138.119,52.156C138.55,52.905 137.764,53.715 140.077,54.179L140.236,55.084C140.479,56.246 140.496,56.184 141.232,57.091C142.602,60.509 143.465,61.929 143.705,62.325C143.496,63.867 143.625,63.777 144.196,65.132C144.242,68.172 144.354,75.615 144.286,103.133C143.984,111.539 144.195,111.505 145.176,116.137C145.175,119.177 145.169,152.529 145.164,154.138C144.924,154.995 144.31,154.892 144.319,160.149L144.217,166.144C143.638,167.521 143.512,167.48 143.695,168.982C141.63,174.819 141.276,174.625 141.152,175.143C140.448,176.056 140.431,176.005 140.142,177.139C138.874,178.501 138.987,178.5 138.056,180.069C137.743,180.42 137.431,180.771 137.118,181.123C136.418,181.879 134.746,182.331 133.982,184.889L133.101,185.076C132.088,185.66 131.664,185.202 130.998,186.925L130.125,187.114C129.811,187.287 128.172,188.189 126.181,189.226C125.818,189.49 125.455,189.753 125.092,190.017C124.936,190.109 123.907,190.718 123.08,191.051C122.431,191.408 121.781,191.766 121.132,192.123C118.809,192.836 118.709,193.018 118.093,195.101C117.789,195.454 117.486,195.808 117.182,196.161C116.818,196.811 116.454,197.462 116.089,198.112C115.756,198.779 115.423,199.447 115.09,200.114C114.876,200.504 114.943,200.461 114.642,201.973C114.642,201.973 114.176,203.044 114.135,203.137C113.149,205.525 113.395,205.517 113.111,208.134C112.796,209.47 112.481,210.806 112.167,212.143C110.933,215.776 111.227,215.831 111.084,216.128C110.678,217.563 110.601,217.492 110.719,218.998C110.534,219.712 110.349,220.427 110.164,221.141C110.102,221.339 109.455,221.16 108.999,227.077C108.735,227.443 108.471,227.808 108.206,228.174C107.365,229.111 105.81,229.444 105.035,231.944C104.352,232.22 103.669,232.496 102.986,232.771C101.475,232.54 101.564,232.667 100.141,233.203L97.143,233.181C70.121,234.43 69.915,232.303 64.141,234.191C55.088,234.267 55.15,234.252 46.135,234.199C45.725,234.062 43.117,233.193 41.132,232.147C40.779,231.833 40.425,231.519 40.072,231.205C39.729,230.892 39.386,230.58 39.044,230.267C35.637,226.541 36.752,226.005 35.285,221.124C35.227,220.719 34.73,217.255 34.184,216.127L33.7,212.222C33.459,211.541 33.217,210.861 32.976,210.18L32.73,208.222L32.081,207.143C31.795,204.564 31.996,204.565 31.021,202.163C30.759,201.469 30.497,200.775 30.235,200.081C29.884,199.425 29.533,198.77 29.182,198.114C28.74,196.654 28.854,196.514 27.393,195.965C26.123,194.291 26.313,194.209 26.189,194.08C24.36,192.339 24.445,192.361 22.18,191.081C21.849,190.942 18.838,189.677 18.118,189.183C17.472,188.817 16.826,188.451 16.18,188.085C15.823,187.785 15.466,187.486 15.109,187.186C9.669,181.504 9.514,181.702 9.047,181.206C8.155,180.125 7.353,179.254 7.201,179.089C6.838,178.444 6.475,177.799 6.113,177.154C6.032,176.836 5.651,175.347 4.741,173.283C3.876,170.941 3.949,170.985 2.603,168.918C2.753,167.458 2.633,167.51 2.096,166.143C1.274,147.565 1.979,132.277 1.643,129.148C1.599,128.741 0.991,128.543 0.947,128.137L1.054,125.137C1.274,122.639 1.492,121.092 1.074,117.133C1.121,93.085 1.238,93.16 0.971,69.126C1.558,67.203 1.674,67.271 1.538,65.278C1.718,64.894 1.898,64.51 2.078,64.126C2.561,62.75 2.668,62.808 2.588,61.3C2.707,60.965 4.05,57.196 4.085,57.119C5.616,55.395 5.099,55.205 6.083,53.098C6.277,52.903 6.704,53.158 6.898,52.963C7.716,52.14 7.259,51.908 8.068,51.063C8.375,50.715 8.682,50.366 8.988,50.018C9.972,48.976 10.829,48.132 10.992,47.971C11.415,47.42 11.838,46.869 12.261,46.319C13.98,45.069 14.011,45.261 14.146,45.146C14.782,44.763 15.417,44.379 16.053,43.996C16.412,43.706 16.772,43.416 17.131,43.126C17.779,42.755 18.427,42.384 19.075,42.012C19.75,41.693 20.426,41.374 21.101,41.055C21.775,40.736 22.449,40.418 23.123,40.099C23.786,39.761 24.449,39.422 25.112,39.084C25.768,38.729 26.424,38.374 27.079,38.019C28.123,37.49 28.193,37.792 29.043,37.024C29.913,36.237 29.61,36.128 30.211,35.179C30.509,34.304 30.994,33.281 31.07,33.119C32.51,30.131 32.623,28.914 33.037,24.123C33.585,22.748 33.738,22.815 33.561,21.292C33.691,20.719 34.764,15.985 35.254,14.147C35.936,12.117 35.819,12.158 36.019,10.098C36.389,9.109 36.759,8.12 37.129,7.13C38.323,5.742 38.229,5.751 39.167,4.159C39.462,3.798 39.757,3.437 40.052,3.076C40.253,2.899 43.79,1.171 44.117,1.011C44.504,0.844 44.89,0.677 45.277,0.51L33.151,48.225C29.075,49.724 28.996,49.17 27.18,49.249C26.789,49.502 24.386,51.061 22.067,52.034C21.899,52.189 20.642,53.348 20.012,54.009C19.246,54.813 19.122,54.554 18.15,55.149C18.003,55.313 16.56,56.922 16.456,57.315C15.754,59.962 14.857,59.5 14.197,62.159C13.9,62.837 13.603,63.515 13.306,64.193C13.066,64.883 12.825,65.573 12.585,66.263C12.638,67.28 12.761,67.234 12.309,68.173C12.09,76.156 12.053,76.068 12.031,84.133C12.375,88.769 13.283,88.923 11.207,93.139C11.188,98.498 11.131,114.639 11.205,160.132C12.068,162.604 11.869,162.573 12.18,165.121C12.43,166.225 13.877,167.97 14.061,168.192C14.426,168.837 14.79,169.482 15.155,170.126C15.501,170.785 15.846,171.444 16.192,172.103C16.472,172.475 16.752,172.847 17.032,173.218C17.269,173.462 18.814,175.055 20.051,176.221C20.865,176.989 20.553,177.08 21.159,178.118C23.181,179.753 23.03,179.897 23.213,180.026C23.861,180.384 24.508,180.741 25.156,181.099C27.926,181.67 30.692,182.851 31.157,183.05C32.319,183.322 32.244,183.294 33.186,183.955C38.794,185.971 97.544,184.881 100.253,184.539C101.213,184.384 102.173,184.229 103.133,184.074L109.124,183.899C111.588,183.03 111.553,183.164 114.127,183.037C114.511,182.874 114.895,182.712 115.279,182.549C118.256,181.959 118.061,181.523 121.071,180.978C124.267,180.127 130.573,172.191 130.971,170.078C131.295,168.425 131.066,168.432 131.956,167.091C132.226,166.07 132.496,165.049 132.766,164.028C132.686,162.982 132.562,163.009 133.102,162.126C134.98,132.161 133.846,132.235 134.111,102.134C134.036,99.736 133.457,81.302 134.078,72.14C133.391,66.979 133.524,66.96 133.106,66.149C132.421,65.23 132.396,65.293 132.132,64.139C131.78,63.483 131.428,62.826 131.076,62.17C130.791,61.807 130.506,61.443 130.221,61.08C129.852,60.438 129.483,59.796 129.114,59.155C128.443,58.393 124.132,53.498 120.093,50.226C117.346,49.813 117.324,49.882 115.116,48.19C114.089,47.701 114.089,47.87 113.101,47.231C111.256,46.037 72.26,45.187 36.012,47.719C35.059,47.888 34.106,48.057 33.153,48.226L45.279,0.511L45.28,0.511Z" style="fill:rgb(107,111,111);fill-opacity:0.99;"/>
        <path d="M41.299,82.444C45.059,83.994 45.176,83.834 48.996,82.453C49.368,82.696 49.741,82.939 50.113,83.183C50.484,83.816 50.856,84.449 51.227,85.082C51.556,86.706 51.551,86.623 52.036,88.139C51.951,103.267 52.012,104.717 52.073,106.157C52.474,106.724 52.875,107.29 53.277,107.857C92.649,108.177 92.907,107.633 93.033,107.088C93.158,106.546 93.046,106.573 93.212,100.139C93.846,96.159 93.862,96.261 94.096,92.134C94.108,90.802 94.119,89.47 94.131,88.138C94.784,86.611 94.763,86.688 95.021,85.057C95.348,84.695 95.674,84.333 96.001,83.972C96.918,83.177 96.832,83.109 98.085,82.909C100.355,83.28 101.092,83.423 104.222,82.965L105.102,83.201C105.483,83.827 105.864,84.453 106.245,85.079C107.433,89.404 106.906,89.489 107.226,141.138C107.25,145.059 106.677,144.871 106.231,146.193C105.915,146.551 105.598,146.909 105.282,147.267C105.008,147.51 104.958,147.554 101.171,149.285C99.64,149.125 99.714,149.111 98.111,149.273C97.116,148.904 96.12,148.536 95.125,148.167C94.977,147.94 94.498,148.149 94.35,147.922C93.284,146.292 93.144,146.164 93.323,125.078C92.453,122.654 91.733,123.47 89.141,123.182C77.481,123.196 65.821,123.209 54.161,123.223C52.965,123.378 53.01,123.398 52.077,124.088C50.629,126.319 51.189,126.654 51.19,144.148C50.82,145.125 50.45,146.103 50.079,147.08C49.757,147.406 49.435,147.732 49.113,148.058L47.987,148.664C44.608,147.659 44.606,148.153 41.113,148.24C39.993,147.877 40.041,147.881 39.144,147.138C38.862,146.779 38.58,146.421 38.298,146.062C37.711,141.968 39.119,112.15 38.054,89.132C38.302,88.432 38.55,87.731 38.798,87.031C38.879,86.621 39.395,84.026 41.301,82.446L41.299,82.444Z" style="fill:rgb(106,110,110);fill-opacity:0.98;"/>
        <path d="M272.141,51.103C275.142,51.101 278.143,51.1 281.144,51.098C282.2,51.419 282.083,52.024 287.158,52.007C288.542,52.524 288.444,52.681 289.995,52.501L290.222,52.918C291.184,53.34 292.145,53.761 293.107,54.183C293.272,54.335 294.144,55.135 295.228,56.019C295.311,56.098 296.266,57.008 296.266,57.008C296.637,57.405 296.031,57.59 296.438,57.869C297.141,58.35 297.27,57.695 298.019,58.208C298.788,60.4 298.634,60.39 299.897,62.248C300.36,62.93 300.027,70.899 300.231,95.135C300.076,97.919 300.067,97.9 300.063,98.141C300.031,100.189 300.2,100.107 300.142,102.138C300.062,104.91 293.912,104.503 287.018,104.294C286.791,103.88 286.563,103.465 286.336,103.051C286.297,101.131 285.54,100.7 284.019,101.971C283.679,102.388 283.331,102.813 278.187,105.319C277.021,105.621 268.795,107.75 263.13,105.184C262.649,104.945 258.669,102.971 257.15,102.128C256.796,101.824 256.441,101.52 256.087,101.215C255.093,100.12 255.145,100.174 254.095,99.166C253.751,98.503 253.407,97.841 253.063,97.178C252.934,97.007 252.245,96.088 251.549,94.969C251.915,91.947 251.837,91.991 251.009,89.139C251.545,86.691 251.605,86.791 251.515,84.291C251.799,83.611 252.084,82.931 252.368,82.251C252.926,81.526 253.485,80.801 254.043,80.076L254.229,79.197C254.83,78.801 255.43,78.405 256.031,78.009C256.379,77.682 256.728,77.356 257.076,77.029C257.747,76.695 258.418,76.36 259.089,76.026C259.601,75.694 259.553,75.725 266.324,73.611C268.811,73.643 268.735,73.51 271.138,72.975L272.14,72.964C272.542,73.008 272.743,73.598 273.145,73.642C273.297,73.659 284.312,73.785 285.068,73.776C286.296,73.761 285.868,73.264 286.016,72.093C286.136,67.693 286.482,67.313 283.38,64.777C282.814,64.314 283.473,63.604 282.026,63.425C281.559,63.367 281.59,63.409 276.145,63.212C273.532,63.255 273.513,63.084 271.232,64.293C270.888,64.603 270.544,64.913 270.2,65.223C268.303,67.46 268.684,67.621 266.996,70.05C265.732,71.87 256.55,71.307 254.096,71.315C253.462,70.915 252.827,70.515 252.193,70.115C252.482,69.113 252.772,68.111 253.061,67.109C253.183,66.888 252.88,66.793 254.051,64.114C254.128,63.95 255.015,62.064 255.015,62.064C255.256,61.709 255.504,62.272 255.698,61.885C256.158,60.969 255.597,60.905 256.02,60.063L256.233,59.195C256.671,58.889 257.356,59.139 257.794,58.833C258.033,58.666 257.773,58.188 257.976,57.978C258.309,57.632 258.518,58.202 258.801,57.788C259.282,57.086 258.677,56.955 259.191,56.204C259.83,55.832 260.469,55.461 261.107,55.089C264.06,54.345 264.066,53.079 264.095,53.053C265.099,52.696 266.104,52.34 267.108,51.983C269.71,51.771 269.632,51.777 272.142,51.102L275.149,82.266C271.028,83.448 271.469,84.578 267.282,85.291C266.962,86.398 266.914,86.318 266.209,87.173C265.877,88.694 265.879,88.633 265.277,90.132C265.572,90.796 265.867,91.459 266.162,92.123C267.161,93.124 267.095,93.057 268.152,94.126C268.357,94.216 268.119,94.686 268.324,94.776C268.966,95.059 270.918,95.053 271.145,95.052C274.43,95.043 274.283,94.579 277.15,94.146C277.513,93.865 277.876,93.584 278.24,93.303C279.688,92.227 281.703,92.004 282.022,91.969C282.716,89.449 283.384,89.979 285.171,88.154C288.493,80.185 281.755,82.226 275.152,82.266L272.145,51.102L272.141,51.103Z" style="fill:rgb(107,111,111);fill-opacity:0.98;"/>
        <path d="M402.293,52.495C404.181,53.002 404.157,52.991 406.092,52.63C410.676,52.821 410.731,53.834 416.14,52.114C416.448,52.016 421.079,52.161 416.159,56.154C414.59,57.097 414.571,56.922 413.31,58.296C412.54,59.136 412.731,59.158 412.102,60.097C407.976,62.969 407.944,62.865 405.046,67.045C404.659,67.458 400.942,71.432 400.116,72.118C399.539,72.612 399.532,72.49 399.043,73.036C398.57,73.563 398.613,73.528 398.111,74.101C396.506,75.346 395.942,75.507 397.011,77.222C398.464,79.3 398.439,79.225 400.193,81.102C400.339,81.274 401.103,82.171 402.075,83.199C403.45,85.325 403.396,85.294 405.178,87.115C405.473,87.477 405.768,87.84 406.063,88.202C407.42,90.312 407.399,90.216 409.193,92.103C410.842,94.057 410.507,94.234 412.198,96.08C413.159,97.211 413.115,97.16 414.157,98.129C415.177,101.436 416.314,100.632 417.109,101.172C417.357,101.504 417.507,101.155 417.753,101.484C417.853,101.618 417.835,101.615 418.858,103.256C417.133,104.99 417.319,105.139 417.163,105.281C403.027,104.968 402.678,105.193 402.185,104.097C401.985,103.651 400.394,102.216 400.226,102.065C398.889,99.836 399,99.863 397.175,98.118C393.316,92.887 389.909,88.846 389.249,88.062C388.883,87.419 388.517,86.775 388.151,86.132C387.99,85.894 386.922,84.315 386.053,83.216C385.907,82.972 384.341,80.357 384.073,80.268C383.767,80.165 382.243,79.654 382.848,84.11C383.204,100.038 383.629,104.792 381.133,105.084C377.738,105.481 370.081,105.244 369.12,105.214C366.996,105.148 368.131,103.714 368.044,43.138C368.037,38.519 367.507,31.38 369.077,30.985C369.452,30.891 382.348,30.66 382.915,31.34C383.971,32.608 382.592,67.913 382.467,71.09C382.384,73.21 384.405,72.997 385.125,71.117C385.188,70.954 385.478,70.195 386.232,69.23C386.886,68.549 387.541,67.868 388.195,67.187C395.849,59.33 396.705,58.146 397.337,57.272C398.19,56.603 398.249,56.766 398.973,55.989C399.05,55.906 398.973,55.989 399.957,54.965C400.368,54.381 400.779,53.797 401.19,53.213C401.558,52.974 401.925,52.735 402.293,52.495Z" style="fill:rgb(106,110,110);fill-opacity:0.97;"/>
        <path d="M297.194,118.617C304.237,116.803 302.498,123.611 302.46,130.162C302.44,133.526 300.443,131.949 275.172,132.443C274.07,132.465 272.592,132.669 273.471,146.114C273.824,151.512 291.276,147.613 296.18,147.795C297.27,147.835 299.162,147.906 298.454,161.239C298.326,163.652 293.795,161.538 293.116,161.506C275.707,160.697 274.483,161.318 273.05,162.045C271.815,162.671 272.821,186.576 272.438,188.239C272.215,189.209 272.012,190.093 260.049,189.433C258.809,189.365 258.8,187.379 258.799,187.172C258.774,181.802 258.524,127.141 258.864,120.049C258.976,117.711 263.638,119.46 297.193,118.618L297.194,118.617Z" style="fill:rgb(98,189,231);fill-opacity:0.97;"/>
        <path d="M331.14,51.089C334.474,51.099 337.809,51.108 341.143,51.118C342.671,51.658 342.604,51.708 344.212,51.926C346.191,52.816 346.118,52.755 348.21,53.003L349.089,53.236C350.256,54.718 350.413,54.436 352.11,55.183C352.472,55.475 352.834,55.766 353.196,56.058C353.817,56.445 354.438,56.833 355.059,57.22C355.445,57.841 355.83,58.463 356.216,59.084C356.512,59.444 356.808,59.804 357.104,60.164C357.472,60.806 357.84,61.448 358.208,62.089C358.689,64.354 359.229,63.999 360.287,66.077L360.773,66.304C360.612,67.804 360.735,67.729 361.329,69.141C360.853,71.396 360.396,71.268 358.153,71.303C349.875,71.43 347.188,71.101 346.242,70.985C345.848,70.39 345.454,69.794 345.06,69.199C344.304,68.362 344.743,68.159 343.946,67.303C343.367,66.886 342.788,66.47 342.209,66.053C341.381,65.694 340.163,64.675 339.998,64.537C339.044,64.432 338.09,64.327 337.136,64.223L335.146,64.185C332.943,64.262 332.852,63.82 331.117,65.043C330.959,65.132 329.916,65.718 329.101,66.076C326.602,67.641 326.623,67.601 325.002,70.037C324.698,70.935 323.709,72.128 323.573,72.293L323.312,74.18C323.24,80 322.732,80.071 323.765,82.277C323.59,83.811 323.726,83.721 324.32,85.056C324.581,85.425 324.842,85.795 325.103,86.164C325.474,86.807 325.845,87.45 326.215,88.092C328.134,89.815 327.961,89.883 330.079,91.258C331.88,93.356 332.195,92.894 335.147,93.026L336.138,93.017C339.835,92.754 339.793,92.645 343.039,90.967C343.44,90.381 343.841,89.796 344.242,89.21C344.853,88.504 345.463,87.799 346.074,87.093C348.402,84.563 348.766,85.231 352.145,85.084C353.498,85.317 354.85,85.551 356.203,85.784C356.798,85.854 363.293,84.201 360.248,91.167C359.884,92.159 359.52,93.152 359.156,94.144C358.866,94.503 358.577,94.863 358.287,95.222C357.886,95.842 357.485,96.462 357.085,97.081C353.854,100.474 353.556,100.028 350.166,103.176C349.174,103.539 348.182,103.902 347.19,104.264L346.992,104.772C345.505,104.516 345.581,104.609 344.149,105.169C342.98,105.457 336.839,107.331 327.132,105.205C325.656,104.545 325.727,104.495 324.139,104.149C323.142,103.81 322.145,103.47 321.148,103.131C319.193,101.544 319.068,101.822 317.094,100.207C316.777,99.882 313.552,96.58 313.139,96.14C312.849,94.99 312.82,95.054 312.079,94.173C310.745,92.26 311.264,92.086 310.021,90.193C309.378,89.213 309.7,89.12 309.019,88.189C308.84,86.025 308.9,86.089 308.149,84.136C308.106,83.257 308.15,83.325 308.138,73.136C309.204,70.063 309.176,70.144 309.914,67.041C310.332,66.078 310.75,65.115 311.168,64.152C311.444,63.783 311.721,63.415 311.997,63.046C312.375,62.405 312.753,61.765 313.131,61.124C313.436,60.77 313.741,60.417 314.046,60.063C314.45,59.469 314.853,58.876 315.257,58.282C315.874,57.884 316.49,57.486 317.107,57.088C317.744,56.703 318.382,56.319 319.019,55.934C319.387,55.657 319.755,55.379 320.123,55.102C322.029,54.602 321.753,54.212 322.067,53.972C323.01,53.304 323.133,53.684 324.062,52.95C325.416,52.651 326.77,52.353 328.125,52.054C329.131,51.732 330.138,51.409 331.144,51.087L331.14,51.089Z" style="fill:rgb(107,111,111);fill-opacity:0.98;"/>
        <path d="M157.135,35.106C157.542,35.147 157.697,35.816 158.104,35.858C164.762,36.535 174.709,35.335 176.143,35.162C209.167,35.097 209.782,34.928 210.059,36.172C210.198,36.794 210.057,36.757 210.195,44.137C210.247,46.933 211.1,47.25 209.153,49.173C208.751,49.13 208.593,48.476 208.19,48.433C207.845,48.396 207.848,48.42 191.191,48.414C190.311,49.05 190.304,48.999 189.942,50.082C190.005,54.324 190.333,76.316 190.033,103.11C188.687,104.426 176.241,105.496 176.249,102.118C176.289,86.131 176.123,83.729 176.013,82.134C176.054,66.081 176.04,66.156 176.143,50.138C175.904,49.004 175.892,49.065 175.09,48.31C165.508,48.082 165.586,48.805 156.049,48.182C155.1,36.903 156.347,35.802 157.134,35.107L157.135,35.106Z" style="fill:rgb(83,86,86);fill-opacity:0.98;"/>
        <path d="M364.149,149.469C363.517,149.179 355.686,145.581 355.493,150.247C355.35,165.239 354.997,168.203 356.251,171.094C356.868,172.515 355.039,175.728 359.144,175.843C368.476,176.105 369.41,175.298 369.485,177.038C369.997,188.831 369.144,189.028 368.187,189.25C367.245,189.468 367.269,188.731 356.125,188.429C351.805,188.312 344.971,184.123 344.121,182.149C340.079,172.762 342.186,172.396 341.852,152.137C341.725,144.466 332.104,153.278 331.865,147.205C331.816,145.947 330.39,135.821 335.139,135.83C336.056,135.832 342.495,139.298 342.799,133.135C343.201,125.006 341.225,120.1 349.046,122.416C351.446,123.127 356.273,120.09 356.408,124.073C356.791,135.356 355.571,136.797 358.166,136.84C363.217,136.924 363.122,136.78 368.164,136.83C370.625,136.854 370.467,137.605 370.5,140.117C370.51,140.85 370.612,148.656 369.166,149.187C368.789,149.325 368.796,149.208 364.149,149.47L364.149,149.469Z" style="fill:rgb(100,189,232);fill-opacity:0.95;"/>
        <path d="M404.068,120.942C412.751,120.848 412.984,120.279 413.895,121.355C415.047,122.715 412.99,143.65 415.278,144.799C417.592,145.961 438.132,142.818 438.288,147.111C438.453,151.66 439.171,157.246 436.159,157.305C415.754,157.702 414.18,156.435 414.109,159.132C413.576,179.427 414.489,179.417 414.199,181.154C413.885,183.036 405.436,182.274 404.115,182.227C402.439,180.799 403.475,180.323 403.003,160.132L402.942,157.27C397.569,154.68 383.001,158.461 379.789,155.284C379.825,152.174 379.861,149.064 379.897,145.954C380.297,145.591 380.698,145.227 381.098,144.864C382.699,144.877 400.992,145.02 401.116,144.971C403.374,144.084 402.819,143.54 402.982,141.141C403.239,136.094 403.123,136.167 402.963,131.119L402.983,130.136C403.284,125.114 403.216,123.701 403.19,123.142C403.126,121.81 403.136,121.804 404.067,120.941L404.068,120.942Z" style="fill:rgb(82,190,41);fill-opacity:0.98;"/>
        <path d="M238.14,51.114C238.925,51.101 247.583,50.958 247.951,51.325C248.517,51.89 248.18,63.703 248.118,64.127C247.779,66.449 238.499,62.915 234.062,67.042C233.117,67.626 233.025,67.329 232.201,68.193C231.423,69.007 231.667,69.044 231.031,70.056C230.879,70.51 230.841,70.439 230.731,70.951C230.731,70.951 230.205,72.044 230.159,72.14C229.157,75.563 229.272,75.539 229.232,79.142C229.167,102.46 229.536,102.685 228.221,104.246C227.661,104.225 220.685,103.937 219.14,104.034C217.502,104.137 217.681,104.534 216.185,105.047C215.792,104.429 215.399,103.811 215.006,103.193L214.569,102.973C215.249,99.578 215.408,99.644 215.001,96.131L215.011,92.142C216.348,81.803 213.89,56.104 216.056,52.906C219.005,52.829 218.908,52.895 219.156,52.881C220.169,52.793 221.182,52.705 222.195,52.617C224.672,53.153 224.636,53.259 226.983,52.519C227.404,53.888 227.338,53.795 227.404,53.888C227.873,54.543 227.686,54.533 227.978,55.201C226.574,61.898 230.932,55.264 231.068,55.057C233.159,52.855 233.44,53.395 236.066,51.93C236.758,51.658 237.449,51.387 238.141,51.115L238.14,51.114Z" style="fill:rgb(106,110,110);fill-opacity:0.98;"/>
        <path d="M320.203,136.636C321.982,136.098 321.966,136.082 322.124,136.055C326.344,135.325 325.173,138.346 325.481,187.164C325.508,191.4 323.333,189.455 319.14,189.458C314.189,189.461 311.818,191.138 311.835,186.148C311.984,141.859 311.671,141.895 311.845,138.052C311.916,136.476 319.922,136.645 320.203,136.637L320.203,136.636Z" style="fill:rgb(101,190,232);fill-opacity:0.96;"/>
        <path d="M120.365,107.102C120.737,108.032 120.118,108.04 120.463,108.903C120.501,108.999 120.634,109.332 121.427,109.76C121.701,109.908 122.073,109.773 122.347,109.921C122.878,110.365 123.409,110.808 123.94,111.252L124.159,112.127C124.358,114.625 124.395,114.565 124.935,117.061C123.779,118.82 123.866,118.783 122.379,120.364C119.709,123.204 122.839,132.75 120.4,136.328C119.97,136.909 119.541,137.491 119.111,138.072C117.56,137.697 117.604,137.737 116.143,138.278L115.14,138.271C114.11,137.946 113.079,137.621 112.049,137.296C109.585,136.384 109.839,135.457 109.992,104.136C110.022,97.94 109.241,97.7 110.735,95.788C113.718,91.97 117.079,94.373 119.145,95.132C120.746,95.72 120.323,103.149 120.363,107.102L120.365,107.102Z" style="fill:rgb(107,111,111);fill-opacity:0.98;"/>
        <path d="M29.266,93.456C34.39,94.349 34.883,94.722 35.279,95.022C36.22,97.186 35.758,97.274 35.878,127.139C35.901,132.79 37.625,133.365 33.961,137.763C31.966,137.613 32.072,137.436 30.148,137.476C28.563,137.508 28.668,137.784 27.16,138.098C26.683,136.146 26.095,136.62 25.834,136.357C24.31,134.069 25.067,133.86 25.009,123.148C24.998,121.184 24.362,121.511 24.096,121.194C23.081,120.162 23.136,120.217 22.077,119.176C21.754,118.164 21.43,117.152 21.107,116.141C21.178,114.835 21.249,113.528 21.32,112.222C21.855,111.773 22.389,111.325 22.924,110.876C23.287,110.57 23.649,110.263 24.012,109.957C24.56,109.374 24.815,109.372 25.136,96.135C25.75,95.724 26.364,95.313 26.978,94.901C27.191,94.798 26.973,94.324 27.187,94.221C27.347,94.144 27.341,94.164 29.267,93.458L29.266,93.456Z" style="fill:rgb(109,113,113);fill-opacity:0.98;"/>
        <path d="M320.996,131.839C320.16,132.093 314.64,133.772 310.495,128.841C309.232,127.338 306.25,118.271 313.977,115.717C327.597,111.216 328.266,124.742 326.132,128.131C326.125,128.142 325.723,129.457 320.996,131.839Z" style="fill:rgb(101,190,232);fill-opacity:0.93;"/>
        <path d="M214.942,52.835L216.054,52.905C213.888,56.103 216.346,81.803 215.009,92.141C214.101,90.13 213.764,90.292 213.828,88.14C214.208,75.244 213.741,75.253 213.828,74.136C214.249,68.701 213.832,61.224 213.844,61.13C214.465,56.286 212.124,55.648 214.942,52.834L214.942,52.835Z" style="fill:rgb(118,122,122);fill-opacity:0.16;"/>
        <path d="M176.014,82.132C176.124,83.727 176.29,86.129 176.25,102.116C176.242,105.494 188.688,104.424 190.034,103.108C189.489,106.432 187.994,104.74 181.138,104.915C180.559,104.93 174.992,106.579 174.96,102.16C174.841,85.659 175.508,83.654 176.015,82.132L176.014,82.132Z" style="fill:rgb(99,101,101);fill-opacity:0.25;"/>
        <path d="M134.081,72.141C136.944,81.994 135.013,99.24 134.114,102.135C134.039,99.737 133.46,81.303 134.081,72.141Z" style="fill:rgb(108,110,110);fill-opacity:0.2;"/>
        <path d="M0.947,128.137C0.991,128.544 1.599,128.742 1.643,129.148C1.979,132.276 1.275,147.565 2.096,166.143C0.857,162.645 0.96,162.589 0.947,128.137Z" style="fill:rgb(101,103,103);fill-opacity:0.29;"/>
        <path d="M52.076,124.087C52.157,124.775 52.239,125.463 52.32,126.152C52.338,126.311 52.848,127.318 52.665,129.132C51.801,137.691 53.945,137.949 51.09,146.118L51.189,144.147C51.188,126.653 50.628,126.319 52.076,124.087Z" style="fill:rgb(112,114,114);fill-opacity:0.2;"/>
        <path d="M300.231,95.133C300.461,95.919 303.241,105.403 299.173,105.323C298.212,105.304 288.311,105.108 287.159,105.102L287.017,104.292C293.911,104.501 300.061,104.908 300.141,102.136C300.2,100.105 300.03,100.186 300.062,98.139C300.066,97.898 300.074,97.916 300.23,95.133L300.231,95.133Z" style="fill:rgb(101,107,109);fill-opacity:0.24;"/>
        <path d="M403.004,160.133C403.476,180.324 402.439,180.8 404.116,182.228C401.095,181.388 402.113,180.198 402.176,167.137C402.194,163.514 401.695,163.498 403.005,160.133L403.004,160.133Z" style="fill:rgb(100,168,37);fill-opacity:0.19;"/>
        <path d="M97.146,233.181C93.929,234.425 93.842,234.212 64.144,234.191C69.918,232.303 70.124,234.431 97.146,233.181Z" style="fill:rgb(92,96,96);fill-opacity:0.3;"/>
        <path d="M379.79,155.285C383.002,158.462 397.57,154.68 402.943,157.271C402.32,157.307 401.696,157.343 401.073,157.379C390.543,157.107 390.628,157.523 380.136,157.147L379.804,156.448L379.79,155.285Z" style="fill:rgb(96,171,72);fill-opacity:0.28;"/>
        <path d="M156.05,48.181C165.587,48.803 165.509,48.081 175.091,48.309L174.15,49.089C158.257,49.028 157.886,49.888 156.05,48.181Z" style="fill:rgb(91,94,94);fill-opacity:0.32;"/>
        <path d="M228.22,104.246C227.212,105.08 226.379,105.943 216.184,105.047C217.68,104.534 217.501,104.137 219.139,104.034C220.684,103.937 227.66,104.225 228.22,104.246Z" style="fill:rgb(108,114,114);fill-opacity:0.2;"/>
        <path d="M144.288,103.132C146.178,108.665 145.388,108.76 145.178,116.136C144.197,111.504 143.986,111.538 144.288,103.132Z" style="fill:rgb(110,113,113);fill-opacity:0.22;"/>
        <path d="M191.191,48.413C207.848,48.419 207.845,48.395 208.19,48.432C208.592,48.475 208.75,49.129 209.153,49.172C200.611,49.127 200.677,49.08 192.135,49.027L191.191,48.412L191.191,48.413Z" style="fill:rgb(86,88,88);fill-opacity:0.34;"/>
        <path d="M157.135,35.106C164.526,35.165 164.434,35.228 176.143,35.162C174.709,35.335 164.762,36.535 158.104,35.858C157.697,35.817 157.542,35.148 157.135,35.106Z" style="fill:rgb(93,95,95);fill-opacity:0.35;"/>
        <path d="M286.017,72.092C285.869,73.262 286.297,73.76 285.069,73.775C284.313,73.784 273.298,73.657 273.146,73.641C272.744,73.597 272.543,73.007 272.141,72.963C277.388,72.97 284.266,73.446 286.016,72.092L286.017,72.092Z" style="fill:rgb(101,103,103);fill-opacity:0.27;"/>
        <path d="M378.996,146.086L379.897,145.955C379.861,149.065 379.825,152.175 379.789,155.285L379.803,156.448L379.204,156.104C378.53,151.092 378.822,151.132 378.995,146.086L378.996,146.086Z" style="fill:rgb(119,175,102);fill-opacity:0.27;"/>
        <path d="M404.068,120.942C403.137,121.806 403.127,121.811 403.191,123.143C403.218,123.702 403.285,125.115 402.984,130.137C400.145,122.288 403.367,121.182 404.068,120.942Z" style="fill:rgb(83,170,42);fill-opacity:0.21;"/>
        <path d="M364.149,149.469C363.454,149.475 356.54,149.533 355.493,150.247C355.686,145.581 363.517,149.179 364.149,149.469Z" style="fill:rgb(75,148,191);fill-opacity:0.1;"/>
        <path d="M35.287,221.124C36.754,226.005 35.639,226.54 39.046,230.267C36.079,229.72 37.411,228.23 35.439,226.007C34.677,225.147 35.134,222.197 35.286,221.125L35.287,221.124Z" style="fill:rgb(102,110,110);fill-opacity:0.28;"/>
        <path d="M12.035,84.134C12.379,88.77 13.287,88.924 11.211,93.14C10.647,88.551 11.073,88.616 12.035,84.134Z" style="fill:rgb(103,105,105);fill-opacity:0.22;"/>
        <path d="M41.299,82.444C44.115,81.617 45.119,81.563 48.996,82.453C45.176,83.834 45.06,83.993 41.299,82.444Z" style="fill:rgb(122,131,131);fill-opacity:0.17;"/>
        <path d="M402.965,131.121C403.124,136.169 403.24,136.097 402.984,141.143C401.533,136.107 401.159,136.009 402.965,131.121Z" style="fill:rgb(95,161,30);fill-opacity:0.2;"/>
        <path d="M386.052,83.216C384.266,83.067 384.398,83.329 382.847,84.109C382.242,79.654 383.766,80.165 384.072,80.267C384.34,80.357 385.906,82.972 386.052,83.215L386.052,83.216Z" style="fill:rgb(101,103,103);fill-opacity:0.18;"/>
        <path d="M29.266,93.456C34.06,92.181 34.769,92.49 35.279,95.022C34.883,94.722 34.39,94.349 29.266,93.456Z" style="fill:rgb(133,136,136);fill-opacity:0.21;"/>
        <path d="M1.074,117.134C1.492,121.093 1.274,122.64 1.054,125.138C-0.446,120.655 -0.26,120.234 1.074,117.134Z" style="fill:rgb(94,96,96);fill-opacity:0.21;"/>
        <path d="M98.084,82.908C100.614,80.999 102.317,81.448 104.221,82.964C101.092,83.421 100.354,83.279 98.084,82.908Z" style="fill:rgb(120,121,121);fill-opacity:0.17;"/>
        <path d="M412.102,60.096C411.527,60.641 408.227,63.772 405.046,67.044C407.944,62.865 407.976,62.968 412.102,60.096Z" style="fill:rgb(83,87,86);fill-opacity:0.29;"/>
        <path d="M9.048,181.206C9.515,181.702 9.67,181.504 15.11,187.186C13.159,186.744 13.446,186.346 10.199,183.081C9.404,182.282 9.659,182.201 9.048,181.206Z" style="fill:rgb(94,97,97);fill-opacity:0.27;"/>
        <path d="M310.044,66.091L309.911,67.042C309.173,70.145 309.201,70.063 308.135,73.137C308.129,70.65 306.945,70.268 310.045,66.091L310.044,66.091Z" style="fill:rgb(106,108,107);fill-opacity:0.24;"/>
        <path d="M230.403,54.605L231.194,54.195L231.067,55.056C230.931,55.263 226.573,61.897 227.977,55.2C228.161,55.212 230.283,55.345 230.283,55.345C230.474,55.184 230.212,54.766 230.403,54.605Z" style="fill:rgb(121,123,123);fill-opacity:0.22;"/>
        <path d="M41.112,148.238C44.605,148.152 44.607,147.658 47.986,148.662C44.396,149.322 44.176,150.288 41.112,148.238Z" style="fill:rgb(101,103,103);fill-opacity:0.22;"/>
        <path d="M215,96.131C215.407,99.644 215.248,99.578 214.568,102.973C214.025,99.472 213.543,99.411 215,96.131Z" style="fill:rgb(104,107,107);fill-opacity:0.19;"/>
        <path d="M275.148,82.267C271.027,83.449 271.468,84.579 267.281,85.292C270.893,82.913 271.001,83.239 275.148,82.267Z" style="fill:rgb(92,95,95);fill-opacity:0.26;"/>
        <path d="M33.039,24.123C32.625,28.914 32.512,30.131 31.072,33.119C31.152,32.387 31.639,27.9 33.039,24.123Z" style="fill:rgb(92,94,94);fill-opacity:0.25;"/>
        <path d="M132.168,46.099C132.664,46.375 136.509,48.515 137.218,51.085C136.821,50.679 133.694,47.482 132.168,46.099Z" style="fill:rgb(98,102,100);fill-opacity:0.24;"/>
        <path d="M257.15,102.126C258.669,102.969 262.649,104.944 263.13,105.182C259.624,104.742 259.574,104.639 257.15,102.126Z" style="fill:rgb(103,105,105);fill-opacity:0.23;"/>
        <path d="M284.018,101.97C283.018,104.266 283.103,104.91 278.186,105.318C283.33,102.811 283.677,102.386 284.018,101.97Z" style="fill:rgb(100,102,103);fill-opacity:0.25;"/>
        <path d="M27.16,138.097C28.668,137.783 28.563,137.507 30.148,137.475C32.072,137.436 31.966,137.612 33.961,137.762C29.565,138.874 28.961,138.181 27.16,138.096L27.16,138.097Z" style="fill:rgb(111,112,112);fill-opacity:0.26;"/>
        <path d="M234.113,52.037L236.065,51.929C233.439,53.395 233.157,52.854 231.067,55.056L231.194,54.195C232.485,52.839 232.256,52.574 234.113,52.037Z" style="fill:rgb(104,108,108);fill-opacity:0.24;"/>
        <path d="M17.035,173.221C17.272,173.465 18.817,175.058 20.054,176.224C20.868,176.992 20.556,177.083 21.162,178.121C18.725,175.935 18.784,175.93 17.034,173.221L17.035,173.221Z" style="fill:rgb(91,93,93);fill-opacity:0.25;"/>
        <path d="M94.095,92.132C93.861,96.26 93.845,96.157 93.211,100.137C93.212,96.061 92.652,96.03 94.095,92.132Z" style="fill:rgb(93,96,96);fill-opacity:0.29;"/>
        <path d="M230.158,72.139C230.041,75.712 230.516,75.706 229.231,79.141C229.27,75.538 229.155,75.561 230.158,72.139Z" style="fill:rgb(94,97,97);fill-opacity:0.26;"/>
        <path d="M313.136,96.141C313.549,96.581 316.774,99.884 317.091,100.208C315.116,99.644 313.873,98.654 313.136,96.141Z" style="fill:rgb(101,104,105);fill-opacity:0.21;"/>
        <path d="M109.099,13.143C110.509,15.99 110.099,16.019 110.114,19.14C109.311,16.693 109.141,16.767 109.094,14.147L109.099,13.142L109.099,13.143Z" style="fill:rgb(98,99,99);fill-opacity:0.23;"/>
        <path d="M25.16,181.102C27.93,181.673 30.696,182.854 31.161,183.053L29.17,183.056C25.783,182.454 26.108,181.855 25.16,181.102Z" style="fill:rgb(101,103,103);fill-opacity:0.26;"/>
        <path d="M251.009,89.138C251.837,91.99 251.915,91.945 251.549,94.968C250.933,91.994 251.044,92.076 251.009,89.138Z" style="fill:rgb(107,111,111);fill-opacity:0.25;"/>
        <path d="M397.174,98.117C398.999,99.862 398.888,99.834 400.225,102.064C398.354,100.266 397.612,100.734 397.174,98.117Z" style="fill:rgb(99,102,101);fill-opacity:0.22;"/>
        <path d="M343.039,90.967C339.792,92.646 339.835,92.755 336.138,93.017C341.496,91.263 342.474,91.075 343.039,90.967Z" style="fill:rgb(94,98,97);fill-opacity:0.28;"/>
        <path d="M329.099,66.077C327.018,68.096 327.112,68.096 325,70.038C326.621,67.602 326.6,67.642 329.099,66.077Z" style="fill:rgb(91,93,93);fill-opacity:0.24;"/>
        <path d="M41.135,232.147C43.12,233.192 45.728,234.062 46.138,234.199C45.737,234.162 42.606,233.873 41.273,232.929L41.135,232.148L41.135,232.147Z" style="fill:rgb(96,100,100);fill-opacity:0.27;"/>
        <path d="M285.168,88.155C284.591,89.118 284.809,89.186 284.039,90.039C283.097,91.083 283.102,90.95 282.019,91.969C282.713,89.449 283.381,89.979 285.168,88.154L285.168,88.155Z" style="fill:rgb(98,104,104);fill-opacity:0.22;"/>
        <path d="M416.159,56.154C415.822,56.456 415.899,56.435 412.102,60.096C412.732,59.158 412.54,59.135 413.31,58.295C414.571,56.921 414.59,57.096 416.159,56.153L416.159,56.154Z" style="fill:rgb(89,92,91);fill-opacity:0.25;"/>
        <path d="M110.166,221.14C110.007,224.247 110.339,224.29 109.001,227.076C109.456,221.159 110.104,221.338 110.166,221.14Z" style="fill:rgb(91,95,95);fill-opacity:0.26;"/>
        <path d="M137.121,181.122C135.894,183.34 135.975,183.32 133.985,184.888C134.749,182.33 136.421,181.878 137.121,181.122Z" style="fill:rgb(99,101,101);fill-opacity:0.23;"/>
        <path d="M123.156,41.086C123.478,41.131 125.94,41.478 127.034,42.323L127.184,43.063C123.668,42.315 123.595,41.456 123.157,41.086L123.156,41.086Z" style="fill:rgb(102,104,104);fill-opacity:0.25;"/>
        <path d="M281.144,51.098C284.236,51.181 284.227,50.852 287.158,52.007C282.083,52.024 282.2,51.419 281.144,51.098Z" style="fill:rgb(100,103,103);fill-opacity:0.25;"/>
        <path d="M145.166,154.137C145.134,156.651 145.667,156.722 144.321,160.148C144.312,154.891 144.926,154.993 145.166,154.137Z" style="fill:rgb(97,100,100);fill-opacity:0.27;"/>
        <path d="M6.084,53.099C5.1,55.207 5.617,55.396 4.086,57.12C4.445,54.754 4.483,54.809 6.084,53.099Z" style="fill:rgb(99,105,105);fill-opacity:0.23;"/>
        <path d="M108.209,228.173C106.964,230.361 107.016,230.339 105.038,231.943C105.812,229.443 107.368,229.11 108.209,228.173Z" style="fill:rgb(99,100,100);fill-opacity:0.27;"/>
        <path d="M44.12,1.012C43.792,1.172 40.256,2.901 40.055,3.077C40.723,0.478 41.494,1.173 44.12,1.012Z" style="fill:rgb(104,109,109);fill-opacity:0.24;"/>
        <path d="M22.181,191.081C24.445,192.362 24.36,192.34 26.19,194.08C25.208,193.539 25.159,193.814 24.247,193.009C23.149,192.039 23.223,192.067 22.181,191.08L22.181,191.081Z" style="fill:rgb(88,95,95);fill-opacity:0.24;"/>
        <path d="M115.118,48.191C117.687,49.021 117.658,48.909 120.095,50.227C117.348,49.814 117.326,49.883 115.118,48.191Z" style="fill:rgb(97,99,99);fill-opacity:0.26;"/>
        <path d="M331.14,51.089C330.134,51.411 329.127,51.734 328.121,52.056L326.085,51.98C328.206,50.438 328.39,51.163 331.14,51.088L331.14,51.089Z" style="fill:rgb(104,106,106);fill-opacity:0.23;"/>
        <path d="M121.074,180.98C118.292,182.331 118.396,182.668 115.282,182.551C118.259,181.961 118.064,181.525 121.074,180.98Z" style="fill:rgb(98,101,101);fill-opacity:0.29;"/>
        <path d="M402.075,83.198C404.404,85.591 404.755,85.366 405.178,87.114C403.396,85.293 403.45,85.324 402.075,83.198Z" style="fill:rgb(93,96,95);fill-opacity:0.26;"/>
        <path d="M120.365,107.102C120.582,107.349 122.082,109.051 123.11,110.165L122.348,109.922C122.074,109.774 121.702,109.909 121.428,109.761C120.635,109.332 120.502,108.999 120.464,108.904C120.119,108.04 120.737,108.033 120.366,107.103L120.365,107.102Z" style="fill:rgb(103,105,105);fill-opacity:0.21;"/>
        <path d="M105.28,147.265L105.139,148.134C103.866,149.294 103.82,149.1 102.16,149.256L101.169,149.284C104.956,147.552 105.006,147.508 105.28,147.266L105.28,147.265Z" style="fill:rgb(105,107,107);fill-opacity:0.26;"/>
        <path d="M97.129,149.184L98.109,149.272C99.713,149.11 99.638,149.124 101.169,149.284L102.16,149.256C99.688,150.327 99.614,150.345 97.129,149.184Z" style="fill:rgb(100,103,103);fill-opacity:0.21;"/>
        <path d="M406.063,88.201C407.866,90.041 407.901,89.937 409.193,92.102C407.4,90.215 407.42,90.311 406.063,88.201Z" style="fill:rgb(93,96,95);fill-opacity:0.26;"/>
        <path d="M282.019,91.969C280.561,92.741 280.946,93.493 278.05,93.946L278.237,93.303C279.685,92.227 281.7,92.004 282.019,91.969Z" style="fill:rgb(105,107,107);fill-opacity:0.23;"/>
        <path d="M22.07,52.034C21.902,52.189 20.645,53.348 20.015,54.009C19.249,54.813 19.125,54.554 18.153,55.149C19.977,53.291 19.915,53.358 22.07,52.034Z" style="fill:rgb(87,88,88);fill-opacity:0.27;"/>
        <path d="M358.207,62.091L359.045,62.2C359.761,63.311 360.225,65.759 360.285,66.079C359.228,64.001 358.687,64.356 358.206,62.091L358.207,62.091Z" style="fill:rgb(104,106,105);fill-opacity:0.24;"/>
        <path d="M397.011,77.22C398.869,78.983 398.878,78.911 400.193,81.1C398.439,79.223 398.464,79.299 397.011,77.22Z" style="fill:rgb(91,93,92);fill-opacity:0.27;"/>
        <path d="M330.078,91.259C331.106,92.024 331.287,91.535 335.146,93.027C332.194,92.895 331.878,93.357 330.078,91.259Z" style="fill:rgb(91,93,93);fill-opacity:0.28;"/>
        <path d="M32.173,48.273L33.155,48.226C29.079,49.725 29,49.171 27.184,49.25C29.225,48.536 31.768,48.309 32.174,48.273L32.173,48.273Z" style="fill:rgb(82,84,84);fill-opacity:0.27;"/>
        <path d="M272.141,51.103C269.631,51.778 269.709,51.772 267.107,51.984L266.121,52.047C269.112,51.203 269.092,51.392 272.141,51.103Z" style="fill:rgb(94,97,97);fill-opacity:0.27;"/>
        <path d="M276.145,63.212C274.668,63.842 274.748,63.837 273.154,64.182C272.513,64.219 271.872,64.255 271.232,64.292C273.514,63.083 273.533,63.254 276.145,63.211L276.145,63.212Z" style="fill:rgb(92,94,94);fill-opacity:0.24;"/>
        <path d="M222.193,52.616C224.649,52.216 224.558,52.225 226.981,52.518C224.633,53.258 224.67,53.153 222.193,52.616Z" style="fill:rgb(99,108,108);fill-opacity:0.2;"/>
        <path d="M259.189,56.204C258.674,56.955 259.28,57.086 258.799,57.788C258.516,58.202 258.307,57.632 257.974,57.978C257.772,58.188 258.031,58.666 257.792,58.833C257.354,59.139 256.669,58.889 256.231,59.195C257.635,57.582 257.541,57.623 259.189,56.204Z" style="fill:rgb(103,105,105);fill-opacity:0.22;"/>
        <path d="M124.159,112.128C125.127,113.414 125.387,113.449 124.935,117.062C124.394,114.566 124.358,114.626 124.159,112.128Z" style="fill:rgb(98,100,100);fill-opacity:0.3;"/>
        <path d="M256.018,60.063C255.595,60.905 256.156,60.969 255.696,61.885C255.502,62.272 255.254,61.709 255.013,62.064C255.013,62.064 254.126,63.95 254.049,64.114C254.459,61.754 254.522,61.831 256.017,60.063L256.018,60.063Z" style="fill:rgb(98,102,102);fill-opacity:0.24;"/>
        <path d="M251.515,84.29C251.606,86.79 251.545,86.69 251.009,89.138C251.049,86.623 250.914,86.698 251.515,84.29Z" style="fill:rgb(106,108,108);fill-opacity:0.27;"/>
        <path d="M234.062,67.042C232.566,68.592 232.613,68.481 231.03,70.056C231.666,69.044 231.423,69.007 232.2,68.193C233.025,67.329 233.117,67.626 234.061,67.042L234.062,67.042Z" style="fill:rgb(93,94,94);fill-opacity:0.21;"/>
        <path d="M89.14,123.181C91.731,123.468 92.451,122.653 93.322,125.077C92.163,124.107 89.492,123.289 89.14,123.181Z" style="fill:rgb(83,89,89);fill-opacity:0.22;"/>
        <path d="M130.128,187.114C128.749,188.393 129.002,188.726 127.154,189.163L126.184,189.226C128.175,188.19 129.815,187.287 130.128,187.114Z" style="fill:rgb(92,95,95);fill-opacity:0.26;"/>
        <path d="M114.138,203.136C114.124,207.41 113.544,207.204 113.114,208.133C113.398,205.516 113.152,205.525 114.138,203.136Z" style="fill:rgb(89,92,92);fill-opacity:0.27;"/>
        <path d="M121.134,192.122C120.229,192.929 118.334,194.857 118.095,195.1C118.711,193.017 118.81,192.835 121.134,192.122Z" style="fill:rgb(86,87,87);fill-opacity:0.23;"/>
        <path d="M54.16,123.222C53.161,124.159 52.427,125.897 52.319,126.152C52.238,125.464 52.156,124.776 52.075,124.087C53.009,123.397 52.963,123.377 54.159,123.222L54.16,123.222Z" style="fill:rgb(96,96,96);fill-opacity:0.12;"/>
        <path d="M400.167,54.161L399.956,54.964C398.972,55.988 399.05,55.905 398.972,55.988C398.248,56.765 398.19,56.602 397.336,57.271C398.708,55.552 398.686,55.667 400.166,54.161L400.167,54.161Z" style="fill:rgb(98,101,99);fill-opacity:0.23;"/>
        <path d="M114.131,183.039C111.747,184.019 111.747,183.791 109.128,183.901C111.592,183.032 111.557,183.166 114.131,183.039Z" style="fill:rgb(101,105,105);fill-opacity:0.26;"/>
        <path d="M308.146,84.137C308.897,86.09 308.837,86.026 309.016,88.19C307.679,86.453 308.179,86.325 308.146,84.137Z" style="fill:rgb(105,108,108);fill-opacity:0.24;"/>
        <path d="M30.213,35.179C29.612,36.129 29.916,36.237 29.045,37.024C28.196,37.792 28.125,37.49 27.081,38.019C27.351,37.815 28.924,36.622 30.212,35.179L30.213,35.179Z" style="fill:rgb(83,84,84);fill-opacity:0.21;"/>
        <path d="M323.117,104.195L324.137,104.15C325.725,104.496 325.654,104.546 327.13,105.206C324.947,104.986 324.792,105.581 323.117,104.195Z" style="fill:rgb(101,106,106);fill-opacity:0.24;"/>
        <path d="M266.325,73.61C268.736,73.095 268.657,73.093 271.139,72.974C268.736,73.508 268.812,73.641 266.325,73.61Z" style="fill:rgb(108,109,109);fill-opacity:0.3;"/>
        <path d="M414.156,98.127C415.301,99.423 416.864,100.934 417.108,101.17C416.314,100.63 415.177,101.434 414.156,98.127Z" style="fill:rgb(87,93,92);fill-opacity:0.26;"/>
        <path d="M112.204,27.113C112.921,28.001 112.916,27.942 113.197,29.123L113.291,31.076C112.415,29.172 112.488,29.238 112.204,27.113Z" style="fill:rgb(97,101,101);fill-opacity:0.25;"/>
        <path d="M401.073,157.379C401.696,157.343 402.32,157.307 402.943,157.271L403.004,160.133C402.332,159.279 402.656,159.15 401.976,158.285C401.913,158.205 401.976,158.285 401.073,157.379Z" style="fill:rgb(87,171,28);fill-opacity:0.13;"/>
        <path d="M295.228,56.018C296.813,56.97 296.85,56.837 298.02,58.206C297.271,57.693 297.141,58.348 296.439,57.867C296.032,57.589 296.638,57.404 296.267,57.006C296.267,57.006 295.312,56.096 295.229,56.017L295.228,56.018Z" style="fill:rgb(107,109,109);fill-opacity:0.21;"/>
        <path d="M344.212,51.926L345.2,51.954C346.809,52.264 346.862,52.015 348.21,53.004C346.119,52.756 346.191,52.816 344.212,51.927L344.212,51.926Z" style="fill:rgb(99,103,103);fill-opacity:0.26;"/>
        <path d="M214.942,52.835C216.748,51.756 216.855,52.037 219.155,52.88C218.907,52.894 219.004,52.828 216.055,52.905L214.943,52.835L214.942,52.835Z" style="fill:rgb(105,107,106);fill-opacity:0.19;"/>
        <path d="M36.021,10.098C35.821,12.158 35.938,12.117 35.256,14.147C35.03,10.324 35.716,10.491 36.021,10.098Z" style="fill:rgb(100,102,102);fill-opacity:0.25;"/>
        <path d="M335.145,64.186C333.19,64.967 333.246,64.852 331.116,65.044C332.852,63.821 332.942,64.263 335.145,64.186Z" style="fill:rgb(93,95,95);fill-opacity:0.25;"/>
        <path d="M4.742,173.283C5.652,175.348 6.032,176.836 6.114,177.154L5.369,177.017C4.629,175.205 4.499,175.26 4.742,173.283Z" style="fill:rgb(99,101,101);fill-opacity:0.31;"/>
        <path d="M29.169,183.056L31.16,183.053C32.322,183.325 32.247,183.297 33.189,183.958C31.051,183.758 31.116,183.81 29.169,183.056Z" style="fill:rgb(96,99,99);fill-opacity:0.27;"/>
        <path d="M140.145,177.138C139.678,178.986 139.376,178.72 138.059,180.068C138.99,178.499 138.878,178.499 140.145,177.138Z" style="fill:rgb(95,98,98);fill-opacity:0.25;"/>
        <path d="M400.116,72.117C399.803,73.724 399.685,73.767 398.111,74.1C398.613,73.526 398.57,73.562 399.043,73.035C399.532,72.489 399.539,72.611 400.116,72.117Z" style="fill:rgb(105,106,106);fill-opacity:0.17;"/>
        <path d="M11.209,160.134C12.072,162.606 11.873,162.575 12.184,165.123C11.205,162.706 11.435,162.71 11.209,160.134Z" style="fill:rgb(84,86,86);fill-opacity:0.27;"/>
        <path d="M11.166,47.165L10.995,47.971C10.832,48.132 9.975,48.976 8.991,50.018C9.935,48.426 9.813,48.391 11.166,47.165Z" style="fill:rgb(104,105,105);fill-opacity:0.25;"/>
        <path d="M31.023,202.164C31.998,204.566 31.797,204.564 32.083,207.144C31.181,204.704 31.373,204.734 31.023,202.164Z" style="fill:rgb(84,86,86);fill-opacity:0.29;"/>
        <path d="M326.084,51.98L328.12,52.056C326.766,52.355 325.412,52.653 324.057,52.952C325.011,52.279 324.934,52.302 326.084,51.98Z" style="fill:rgb(104,106,106);fill-opacity:0.3;"/>
        <path d="M412.197,96.078C413.779,96.453 413.83,96.553 414.156,98.127C413.114,97.158 413.158,97.209 412.197,96.078Z" style="fill:rgb(113,116,116);fill-opacity:0.18;"/>
        <path d="M108.191,9.129C108.942,11.11 108.962,11.021 109.099,13.143L109.094,14.148C108.293,11.66 108.462,11.727 108.191,9.13L108.191,9.129Z" style="fill:rgb(85,87,87);fill-opacity:0.31;"/>
        <path d="M341.143,51.118C343.277,51.192 343.371,50.72 345.199,51.954L344.211,51.926C342.603,51.708 342.67,51.658 341.142,51.118L341.143,51.118Z" style="fill:rgb(98,100,100);fill-opacity:0.27;"/>
        <path d="M418.856,103.255C418.875,103.402 419.093,105.097 419.093,105.097C418.995,105.217 418.95,105.111 417.161,105.28C417.317,105.138 417.131,104.989 418.856,103.255Z" style="fill:rgb(107,115,113);fill-opacity:0.29;"/>
        <path d="M1.538,65.279C1.675,67.271 1.558,67.204 0.971,69.127C1.168,67.144 1.054,67.214 1.538,65.279Z" style="fill:rgb(104,109,109);fill-opacity:0.26;"/>
        <path d="M253.059,67.109C252.77,68.111 252.48,69.113 252.191,70.115C252.215,68.409 252.037,68.391 253.059,67.109Z" style="fill:rgb(111,117,117);fill-opacity:0.19;"/>
        <path d="M39.17,4.16C38.232,5.752 38.326,5.743 37.132,7.131C38.03,5.54 37.888,5.566 39.17,4.16Z" style="fill:rgb(93,94,94);fill-opacity:0.28;"/>
        <path d="M264.093,53.053C264.064,53.079 264.058,54.345 261.105,55.089C262.537,53.845 262.5,53.974 264.093,53.053Z" style="fill:rgb(86,122,88);fill-opacity:0.25;"/>
        <path d="M94.191,85.161L95.02,85.055C94.763,86.686 94.783,86.608 94.13,88.136C94.15,87.144 94.171,86.153 94.191,85.161Z" style="fill:rgb(107,113,113);fill-opacity:0.27;"/>
        <path d="M254.095,99.165C255.145,100.174 255.093,100.119 256.087,101.214C254.531,100.815 254.472,100.769 254.095,99.165Z" style="fill:rgb(113,115,115);fill-opacity:0.23;"/>
        <path d="M22.076,119.174C23.134,120.215 23.08,120.161 24.095,121.192C22.582,120.782 22.516,120.781 22.076,119.174Z" style="fill:rgb(103,110,110);fill-opacity:0.26;"/>
        <path d="M113.197,29.123C113.99,31.034 113.937,30.976 114.316,33.062C113.974,32.4 113.633,31.738 113.291,31.076L113.197,29.123Z" style="fill:rgb(88,91,91);fill-opacity:0.24;"/>
        <path d="M349.089,53.236C350.178,54.072 351.86,55.04 352.11,55.183C350.414,54.435 350.256,54.718 349.089,53.236Z" style="fill:rgb(93,96,96);fill-opacity:0.26;"/>
        <path d="M402.293,52.495C404.21,52.229 404.109,52.379 406.092,52.63C404.157,52.991 404.181,53.001 402.293,52.495Z" style="fill:rgb(103,105,105);fill-opacity:0.22;"/>
        <path d="M50.113,83.182C51.194,84.165 51.123,84.093 52.044,85.183L51.228,85.081C50.857,84.448 50.485,83.815 50.114,83.182L50.113,83.182Z" style="fill:rgb(105,106,106);fill-opacity:0.2;"/>
        <path d="M8.07,51.063C7.261,51.908 7.718,52.14 6.9,52.963C6.706,53.158 6.279,52.903 6.085,53.098C6.584,52.311 5.953,51.718 8.071,51.063L8.07,51.063Z" style="fill:rgb(107,110,110);fill-opacity:0.21;"/>
        <path d="M138.12,52.155C139.131,53.145 139.055,53.061 140.078,54.178C137.765,53.714 138.551,52.904 138.12,52.155Z" style="fill:rgb(95,105,105);fill-opacity:0.2;"/>
        <path d="M32.173,48.273C34.105,47.748 34.004,47.649 36.014,47.719C35.061,47.888 34.108,48.057 33.155,48.226L32.173,48.273Z" style="fill:rgb(99,101,101);fill-opacity:0.29;"/>
        <path d="M175.09,48.308C175.892,49.064 175.904,49.002 176.143,50.136C176.012,50.012 175.909,50.223 174.149,49.088L175.09,48.308Z" style="fill:rgb(92,92,92);fill-opacity:0.18;"/>
        <path d="M51.188,144.146L51.089,146.117L50.936,147.012L50.077,147.078C50.447,146.101 50.817,145.123 51.188,144.146Z" style="fill:rgb(96,101,101);fill-opacity:0.31;"/>
        <path d="M266.161,92.123C267.16,93.124 267.094,93.057 268.151,94.126C267.488,93.458 266.825,92.791 266.161,92.123Z" style="fill:rgb(101,103,103);fill-opacity:0.18;"/>
        <path d="M360.247,91.168C359.957,92.786 360.216,92.854 359.155,94.145C359.519,93.153 359.883,92.16 360.247,91.168Z" style="fill:rgb(102,104,104);fill-opacity:0.22;"/>
        <path d="M112.05,137.296C113.08,137.621 114.111,137.946 115.141,138.271C113.462,138.095 113.412,138.384 112.05,137.296Z" style="fill:rgb(102,106,106);fill-opacity:0.29;"/>
        <path d="M346.074,87.093C345.463,87.799 344.853,88.504 344.242,89.21C345.157,88.147 345.096,88.218 346.074,87.093Z" style="fill:rgb(97,99,99);fill-opacity:0.18;"/>
        <path d="M321.145,103.132C322.142,103.471 323.139,103.811 324.136,104.15L323.116,104.195C321.993,103.901 322.037,103.923 321.145,103.132Z" style="fill:rgb(102,105,106);fill-opacity:0.25;"/>
        <path d="M266.121,52.046L267.107,51.983C266.103,52.34 265.098,52.696 264.094,53.053C265.032,52.32 264.955,52.342 266.121,52.046Z" style="fill:rgb(103,105,105);fill-opacity:0.22;"/>
        <path d="M357.103,60.165C358.048,61.216 358.885,62.042 359.045,62.2L358.207,62.091C357.839,61.449 357.471,60.807 357.103,60.166L357.103,60.165Z" style="fill:rgb(89,91,91);fill-opacity:0.18;"/>
        <path d="M238.14,51.114C237.448,51.386 236.757,51.657 236.065,51.929L234.113,52.037C236.14,51.469 236.065,51.429 238.14,51.114Z" style="fill:rgb(89,91,91);fill-opacity:0.25;"/>
        <path d="M381.099,144.865C380.699,145.228 380.298,145.592 379.898,145.955L378.997,146.086C379.9,145.143 379.864,145.162 381.1,144.866L381.099,144.865Z" style="fill:rgb(107,199,97);fill-opacity:0.29;"/>
        <path d="M51.227,85.082L52.043,85.184C52.041,86.169 52.038,87.154 52.036,88.139C51.551,86.623 51.556,86.706 51.227,85.082Z" style="fill:rgb(101,103,103);fill-opacity:0.32;"/>
        <path d="M5.368,177.017L6.113,177.154C6.476,177.799 6.839,178.444 7.201,179.089C6.223,178.035 6.275,178.095 5.368,177.017Z" style="fill:rgb(93,95,94);fill-opacity:0.22;"/>
        <path d="M27.394,195.965C28.855,196.514 28.742,196.654 29.183,198.114C28.266,197.03 28.316,197.09 27.394,195.965Z" style="fill:rgb(89,90,90);fill-opacity:0.24;"/>
        <path d="M127.034,42.323C128.176,43.257 128.104,43.199 129.174,44.081C128.511,43.742 127.847,43.402 127.184,43.063L127.034,42.323Z" style="fill:rgb(88,94,94);fill-opacity:0.24;"/>
        <path d="M191.191,48.413L192.135,49.028C191.441,49.452 191.416,49.305 190.824,49.83C190.435,50.175 190.311,49.754 189.942,50.082C190.304,48.998 190.311,49.05 191.191,48.414L191.191,48.413Z" style="fill:rgb(81,81,81);fill-opacity:0.2;"/>
        <path d="M33.702,212.222L34.186,216.127C34.055,215.723 33.759,215.384 33.628,214.98C33.078,213.283 33.673,213.309 33.702,212.222Z" style="fill:rgb(90,92,92);fill-opacity:0.31;"/>
        <path d="M254.044,80.075C253.486,80.8 252.927,81.525 252.369,82.25C253.2,81.156 253.155,81.215 254.044,80.075Z" style="fill:rgb(91,99,99);fill-opacity:0.25;"/>
        <path d="M350.164,103.177C348.806,104.21 348.779,103.975 347.188,104.265C348.18,103.902 349.172,103.539 350.164,103.177Z" style="fill:rgb(95,97,97);fill-opacity:0.24;"/>
        <path d="M21.106,116.139C21.429,117.151 21.753,118.163 22.076,119.174C21.065,117.835 21.333,117.789 21.106,116.139Z" style="fill:rgb(98,100,100);fill-opacity:0.26;"/>
        <path d="M271.232,64.293C271.873,64.256 272.514,64.22 273.154,64.183C272.169,64.53 271.184,64.876 270.199,65.223C270.543,64.913 270.887,64.603 271.231,64.293L271.232,64.293Z" style="fill:rgb(90,94,94);fill-opacity:0.22;"/>
        <path d="M95.123,148.166C96.118,148.535 97.114,148.903 98.109,149.272L97.129,149.184C95.992,148.914 96.047,148.893 95.123,148.167L95.123,148.166Z" style="fill:rgb(91,99,99);fill-opacity:0.25;"/>
        <path d="M37.132,7.131C36.762,8.12 36.392,9.109 36.022,10.099C36.334,8.452 36.105,8.423 37.132,7.131Z" style="fill:rgb(92,95,95);fill-opacity:0.25;"/>
        <path d="M104.065,1.277C105.109,2.213 105.062,2.161 105.91,3.284C104.967,2.554 104.62,2.916 104.065,1.277Z" style="fill:rgb(93,98,98);fill-opacity:0.28;"/>
        <path d="M133.103,185.075C132.034,185.998 131.167,186.775 131,186.924C131.665,185.201 132.09,185.659 133.103,185.075Z" style="fill:rgb(85,86,86);fill-opacity:0.24;"/>
        <path d="M265.481,87.313L266.208,87.173C265.876,88.694 265.878,88.633 265.276,90.132C265.344,89.192 265.413,88.253 265.481,87.313Z" style="fill:rgb(95,98,98);fill-opacity:0.22;"/>
        <path d="M352.144,85.084C354.283,85.247 354.215,85.188 356.202,85.784C354.849,85.551 353.497,85.317 352.144,85.084Z" style="fill:rgb(103,104,104);fill-opacity:0.34;"/>
        <path d="M113.114,208.133C112.814,210.245 112.885,210.177 112.17,212.142C112.485,210.806 112.8,209.47 113.114,208.133Z" style="fill:rgb(81,86,86);fill-opacity:0.31;"/>
        <path d="M116.144,138.278C117.605,137.738 117.561,137.697 119.112,138.072C118.123,138.141 117.133,138.209 116.144,138.278Z" style="fill:rgb(107,109,109);fill-opacity:0.27;"/>
        <path d="M96,83.97C95.673,84.332 95.347,84.694 95.02,85.055L94.191,85.161C94.976,84.262 94.939,84.302 96,83.97Z" style="fill:rgb(111,114,114);fill-opacity:0.17;"/>
        <path d="M131.959,167.093C131.631,168.089 131.303,169.084 130.974,170.08C131.298,168.427 131.069,168.434 131.959,167.093Z" style="fill:rgb(95,96,96);fill-opacity:0.26;"/>
        <path d="M290.222,52.917C291.848,53.336 291.867,53.167 293.107,54.182C292.145,53.76 291.184,53.339 290.222,52.917Z" style="fill:rgb(94,97,97);fill-opacity:0.24;"/>
        <path d="M267.281,85.291C266.961,86.398 266.913,86.318 266.208,87.173L265.481,87.313C265.762,86.892 265.757,86.946 267.281,85.291Z" style="fill:rgb(93,95,95);fill-opacity:0.29;"/>
        <path d="M388.194,67.187C387.54,67.868 386.885,68.549 386.231,69.23C387.205,68.2 387.152,68.254 388.194,67.187Z" style="fill:rgb(87,89,89);fill-opacity:0.27;"/>
        <path d="M311.165,64.153C310.747,65.116 310.329,66.079 309.911,67.042L310.044,66.091C310.415,64.955 310.417,65.051 311.165,64.154L311.165,64.153Z" style="fill:rgb(88,96,96);fill-opacity:0.29;"/>
        <path d="M26.977,94.899C26.363,95.31 25.749,95.721 25.135,96.133C25.931,95.256 25.888,95.268 26.977,94.899Z" style="fill:rgb(116,117,117);fill-opacity:0.25;"/>
        <path d="M255.162,78.157L256.031,78.008C255.43,78.404 254.83,78.8 254.229,79.196C254.54,78.85 254.851,78.504 255.162,78.158L255.162,78.157Z" style="fill:rgb(110,112,112);fill-opacity:0.18;"/>
        <path d="M100.144,233.202C101.567,232.666 101.478,232.538 102.989,232.77C101.568,233.095 101.64,233.076 100.144,233.202Z" style="fill:rgb(109,113,113);fill-opacity:0.25;"/>
        <path d="M344.147,105.17C345.579,104.61 345.503,104.518 346.99,104.773C346.042,104.905 345.095,105.037 344.147,105.17Z" style="fill:rgb(107,114,114);fill-opacity:0.26;"/>
        <path d="M50.078,147.078L50.937,147.012C50.329,147.36 49.72,147.708 49.112,148.056C49.434,147.73 49.756,147.404 50.078,147.078Z" style="fill:rgb(99,101,101);fill-opacity:0.23;"/>
        <path d="M360.771,66.305C361.133,67.72 361.114,67.662 361.327,69.142C360.733,67.73 360.61,67.805 360.771,66.305Z" style="fill:rgb(108,109,109);fill-opacity:0.28;"/>
        <path d="M33.563,21.292C33.74,22.815 33.587,22.748 33.039,24.123C33.226,22.68 33.2,22.734 33.563,21.292Z" style="fill:rgb(104,108,108);fill-opacity:0.27;"/>
        <path d="M143.706,62.324C143.87,63.26 144.034,64.195 144.197,65.131C143.625,63.776 143.497,63.865 143.706,62.324Z" style="fill:rgb(100,103,103);fill-opacity:0.27;"/>
        <path d="M25.834,136.356C26.096,136.619 26.683,136.145 27.16,138.097C26.276,137.372 26.285,137.428 25.834,136.356Z" style="fill:rgb(114,118,118);fill-opacity:0.29;"/>
        <path d="M144.22,166.144C144.046,167.09 143.872,168.036 143.698,168.982C143.515,167.481 143.641,167.521 144.22,166.144Z" style="fill:rgb(98,101,101);fill-opacity:0.27;"/>
        <path d="M27.082,38.019C26.426,38.374 25.77,38.729 25.115,39.084C26.004,38.354 25.942,38.332 27.082,38.019Z" style="fill:rgb(103,105,105);fill-opacity:0.24;"/>
        <path d="M117.185,196.16C116.821,196.81 116.457,197.461 116.092,198.111C116.456,197.461 116.82,196.81 117.185,196.16Z" style="fill:rgb(101,104,104);fill-opacity:0.25;"/>
        <path d="M257.077,77.028C256.729,77.355 256.38,77.681 256.032,78.008L255.163,78.157C256.072,77.383 255.974,77.386 257.077,77.028Z" style="fill:rgb(104,107,107);fill-opacity:0.2;"/>
        <path d="M126.184,189.226L127.154,189.163C126.468,189.448 125.781,189.732 125.095,190.017C125.458,189.753 125.821,189.49 126.184,189.226Z" style="fill:rgb(89,91,91);fill-opacity:0.24;"/>
        <path d="M287.158,52.007C288.641,52.185 288.569,52.171 289.995,52.501C288.444,52.681 288.542,52.524 287.158,52.007Z" style="fill:rgb(105,108,108);fill-opacity:0.27;"/>
        <path d="M286.336,103.05C286.563,103.464 286.791,103.879 287.018,104.293L287.16,105.103C286.409,104.227 286.428,104.239 286.336,103.05Z" style="fill:rgb(96,103,103);fill-opacity:0.28;"/>
        <path d="M120.4,136.329C119.987,137.384 119.985,137.339 119.111,138.073C119.541,137.492 119.97,136.91 120.4,136.329Z" style="fill:rgb(107,112,112);fill-opacity:0.29;"/>
        <path d="M105.101,83.2C105.867,84.02 105.904,83.907 106.244,85.078C105.863,84.452 105.482,83.826 105.101,83.2Z" style="fill:rgb(111,113,113);fill-opacity:0.23;"/>
        <path d="M123.083,191.05C122.196,191.844 122.294,191.849 121.135,192.122C121.784,191.765 122.434,191.407 123.083,191.05Z" style="fill:rgb(103,104,104);fill-opacity:0.27;"/>
        <path d="M12.264,46.318C11.841,46.869 11.418,47.42 10.995,47.97L11.166,47.164C11.532,46.882 11.898,46.6 12.264,46.318Z" style="fill:rgb(109,111,111);fill-opacity:0.21;"/>
        <path d="M215.005,103.193C215.398,103.811 215.791,104.429 216.184,105.047C215.361,104.253 215.359,104.33 215.005,103.193Z" style="fill:rgb(96,102,102);fill-opacity:0.29;"/>
        <path d="M29.183,198.115C29.534,198.771 29.885,199.426 30.236,200.082C29.462,199.204 29.451,199.3 29.183,198.115Z" style="fill:rgb(102,104,104);fill-opacity:0.26;"/>
        <path d="M2.097,166.143C2.634,167.51 2.754,167.458 2.604,168.918C2.252,167.476 2.276,167.549 2.097,166.143Z" style="fill:rgb(102,104,104);fill-opacity:0.28;"/>
        <path d="M131.079,62.171C131.431,62.827 131.783,63.484 132.135,64.14C131.783,63.484 131.431,62.827 131.079,62.171Z" style="fill:rgb(95,97,97);fill-opacity:0.26;"/>
        <path d="M315.253,58.284C314.849,58.878 314.446,59.471 314.042,60.065C314.446,59.471 314.849,58.878 315.253,58.284Z" style="fill:rgb(108,110,110);fill-opacity:0.18;"/>
        <path d="M345.059,69.2C345.453,69.795 345.847,70.391 346.241,70.986C345.399,70.173 345.403,70.269 345.059,69.2Z" style="fill:rgb(99,100,100);fill-opacity:0.22;"/>
        <path d="M140.237,55.083C140.569,55.752 140.901,56.421 141.233,57.09C140.497,56.183 140.48,56.245 140.237,55.083Z" style="fill:rgb(91,99,99);fill-opacity:0.27;"/>
        <path d="M312.076,94.174C312.817,95.055 312.846,94.991 313.136,96.141C312.783,95.485 312.429,94.83 312.076,94.174Z" style="fill:rgb(99,102,102);fill-opacity:0.26;"/>
        <path d="M52.073,106.156C52.858,106.934 52.896,106.841 53.277,107.856C52.876,107.289 52.475,106.723 52.073,106.156Z" style="fill:rgb(86,88,88);fill-opacity:0.18;"/>
        <path d="M401.189,53.213C400.778,53.797 400.367,54.381 399.956,54.965L400.167,54.162C400.508,53.846 400.849,53.529 401.19,53.213L401.189,53.213Z" style="fill:rgb(107,109,109);fill-opacity:0.26;"/>
        <path d="M323.764,82.278C323.949,83.204 324.134,84.13 324.319,85.057C323.725,83.722 323.589,83.813 323.764,82.278Z" style="fill:rgb(96,97,97);fill-opacity:0.28;"/>
        <path d="M23.125,40.099C22.451,40.418 21.777,40.736 21.103,41.055C22.066,40.363 21.97,40.373 23.125,40.099Z" style="fill:rgb(99,101,101);fill-opacity:0.27;"/>
        <path d="M132.135,64.14C132.46,64.81 132.784,65.48 133.109,66.15C132.424,65.231 132.399,65.294 132.135,64.14Z" style="fill:rgb(95,97,97);fill-opacity:0.27;"/>
        <path d="M25.115,39.084C24.452,39.422 23.789,39.761 23.126,40.099C23.789,39.761 24.452,39.422 25.115,39.084Z" style="fill:rgb(93,94,94);fill-opacity:0.26;"/>
        <path d="M22.146,111.14L22.923,110.874C22.388,111.323 21.854,111.771 21.319,112.22C21.595,111.86 21.87,111.5 22.146,111.14Z" style="fill:rgb(103,107,107);fill-opacity:0.28;"/>
        <path d="M259.09,76.025C258.419,76.359 257.748,76.694 257.077,77.028C257.748,76.694 258.419,76.359 259.09,76.025Z" style="fill:rgb(96,98,98);fill-opacity:0.28;"/>
        <path d="M14.064,168.194C14.429,168.839 14.793,169.484 15.158,170.128C14.793,169.483 14.429,168.838 14.064,168.194Z" style="fill:rgb(93,95,95);fill-opacity:0.28;"/>
        <path d="M325.102,86.165C325.473,86.808 325.844,87.451 326.214,88.093C325.843,87.45 325.472,86.807 325.102,86.165Z" style="fill:rgb(103,105,105);fill-opacity:0.25;"/>
        <path d="M122.347,109.922L123.109,110.165C123.386,110.528 123.663,110.89 123.94,111.253C123.409,110.809 122.878,110.366 122.347,109.922Z" style="fill:rgb(107,109,109);fill-opacity:0.26;"/>
        <path d="M40.075,231.205C40.428,231.519 40.782,231.833 41.135,232.147L41.273,232.928C40.874,232.354 40.474,231.779 40.075,231.205Z" style="fill:rgb(101,103,103);fill-opacity:0.22;"/>
        <path d="M141.155,175.143C140.818,175.808 140.482,176.473 140.145,177.139C140.434,176.005 140.45,176.056 141.155,175.143Z" style="fill:rgb(87,89,89);fill-opacity:0.28;"/>
        <path d="M252.192,70.114C252.826,70.514 253.461,70.914 254.095,71.314C252.967,70.947 253.022,70.96 252.192,70.114Z" style="fill:rgb(99,103,103);fill-opacity:0.33;"/>
        <path d="M15.158,170.128C15.504,170.787 15.849,171.446 16.195,172.105C15.489,171.213 15.451,171.274 15.158,170.128Z" style="fill:rgb(91,92,92);fill-opacity:0.25;"/>
        <path d="M358.285,95.222C357.884,95.842 357.483,96.462 357.083,97.081C357.484,96.461 357.885,95.841 358.285,95.222Z" style="fill:rgb(102,105,105);fill-opacity:0.28;"/>
        <path d="M337.134,64.223C338.088,64.328 339.042,64.433 339.996,64.537C338.509,64.736 338.549,64.733 337.134,64.223Z" style="fill:rgb(90,92,92);fill-opacity:0.27;"/>
        <path d="M353.195,56.059C353.816,56.446 354.437,56.834 355.058,57.221C354.437,56.834 353.816,56.446 353.195,56.059Z" style="fill:rgb(97,99,99);fill-opacity:0.21;"/>
        <path d="M16.056,43.995C15.42,44.378 14.785,44.762 14.149,45.145C14.785,44.762 15.42,44.378 16.056,43.995Z" style="fill:rgb(97,105,105);fill-opacity:0.27;"/>
        <path d="M72.144,0.12C73.113,0.277 74.083,0.434 75.052,0.591C73.515,0.7 73.609,0.623 72.144,0.12Z" style="fill:rgb(99,101,101);fill-opacity:0.3;"/>
        <path d="M355.058,57.221C355.444,57.842 355.829,58.464 356.215,59.085C355.829,58.464 355.444,57.842 355.058,57.221Z" style="fill:rgb(96,98,98);fill-opacity:0.22;"/>
        <path d="M100.256,184.542C101.216,184.387 102.176,184.232 103.136,184.077C101.72,184.549 101.802,184.68 100.256,184.542Z" style="fill:rgb(102,104,104);fill-opacity:0.29;"/>
        <path d="M129.117,59.155C129.486,59.797 129.855,60.439 130.224,61.08C129.855,60.438 129.486,59.796 129.117,59.155Z" style="fill:rgb(88,90,90);fill-opacity:0.24;"/>
        <path d="M253.063,97.177C253.407,97.84 253.751,98.502 254.095,99.165C253.751,98.502 253.407,97.84 253.063,97.177Z" style="fill:rgb(90,92,92);fill-opacity:0.31;"/>
        <path d="M129.174,44.081C129.809,44.461 130.443,44.842 131.078,45.222C130.443,44.842 129.809,44.461 129.174,44.081Z" style="fill:rgb(97,99,99);fill-opacity:0.27;"/>
        <path d="M45.28,0.511C46.232,0.362 47.185,0.213 48.137,0.064C46.685,0.545 46.781,0.633 45.28,0.511Z" style="fill:rgb(100,104,104);fill-opacity:0.33;"/>
        <path d="M24.01,109.955C23.647,110.261 23.285,110.568 22.922,110.874L22.145,111.14C22.766,110.745 23.388,110.35 24.009,109.955L24.01,109.955Z" style="fill:rgb(98,100,100);fill-opacity:0.31;"/>
        <path d="M16.181,188.085C16.827,188.451 17.473,188.817 18.119,189.183C16.99,188.86 17.093,188.86 16.181,188.085Z" style="fill:rgb(94,96,96);fill-opacity:0.3;"/>
        <path d="M319.015,55.936C318.378,56.321 317.74,56.705 317.103,57.09C318.012,56.33 317.916,56.336 319.015,55.936Z" style="fill:rgb(102,109,109);fill-opacity:0.27;"/>
        <path d="M230.403,54.605C230.212,54.766 230.474,55.184 230.283,55.345C230.283,55.345 228.162,55.211 227.977,55.2C228.786,55.002 229.594,54.803 230.403,54.605Z" style="fill:rgb(61,62,62);fill-opacity:0.07;"/>
        <path d="M23.217,180.029C23.865,180.387 24.512,180.744 25.16,181.102C24.001,180.78 24.096,180.777 23.217,180.029Z" style="fill:rgb(90,92,92);fill-opacity:0.27;"/>
        <path d="M19.078,42.012C18.43,42.383 17.782,42.754 17.134,43.126C18.044,42.385 17.948,42.386 19.078,42.012Z" style="fill:rgb(96,98,98);fill-opacity:0.29;"/>
        <path d="M2.589,61.301C2.669,62.809 2.562,62.75 2.079,64.127C2.249,63.185 2.419,62.243 2.589,61.301Z" style="fill:rgb(96,100,100);fill-opacity:0.32;"/>
        <path d="M342.207,66.053C342.786,66.47 343.365,66.886 343.944,67.303C342.87,66.889 342.985,66.873 342.207,66.053Z" style="fill:rgb(91,101,101);fill-opacity:0.25;"/>
        <path d="M116.092,198.111C115.759,198.778 115.426,199.446 115.093,200.113C115.426,199.446 115.759,198.778 116.092,198.111Z" style="fill:rgb(86,88,88);fill-opacity:0.32;"/>
        <path d="M106.229,146.192C105.866,146.839 105.503,147.487 105.139,148.134L105.28,147.265C105.596,146.907 105.913,146.549 106.229,146.191L106.229,146.192Z" style="fill:rgb(91,92,92);fill-opacity:0.26;"/>
        <path d="M21.104,41.055C20.429,41.374 19.753,41.693 19.078,42.012C19.753,41.693 20.429,41.374 21.104,41.055Z" style="fill:rgb(90,91,91);fill-opacity:0.3;"/>
        <path d="M313.128,61.125C312.75,61.766 312.372,62.406 311.994,63.047C312.372,62.406 312.75,61.766 313.128,61.125Z" style="fill:rgb(98,101,101);fill-opacity:0.27;"/>
        <path d="M79.142,0.132C78.132,0.398 77.122,0.664 76.111,0.93C77.121,0.664 78.131,0.398 79.142,0.132Z" style="fill:rgb(92,96,96);fill-opacity:0.35;"/>
        <path d="M322.063,53.974C321.75,54.214 322.025,54.604 320.119,55.104C320.767,54.727 321.415,54.35 322.063,53.974Z" style="fill:rgb(97,99,99);fill-opacity:0.31;"/>
        <path d="M388.149,86.132C388.515,86.775 388.881,87.419 389.247,88.062C388.881,87.419 388.515,86.775 388.149,86.132Z" style="fill:rgb(85,88,87);fill-opacity:0.28;"/>
        <path d="M111.087,216.126C110.965,217.083 110.844,218.04 110.722,218.996C110.604,217.49 110.681,217.561 111.087,216.126Z" style="fill:rgb(94,99,99);fill-opacity:0.32;"/>
        <path d="M323.571,72.294C323.685,73.295 323.871,73.299 323.31,74.181L323.571,72.294Z" style="fill:rgb(89,91,91);fill-opacity:0.25;"/>
        <path d="M38.796,87.028C38.548,87.728 38.3,88.429 38.052,89.129C38.228,87.956 38.223,88.013 38.796,87.028Z" style="fill:rgb(96,98,98);fill-opacity:0.31;"/>
        <path d="M32.732,208.222L32.978,210.18C32.418,209.264 32.629,209.252 32.732,208.222Z" style="fill:rgb(84,86,86);fill-opacity:0.27;"/>
        <path d="M133.105,162.127L132.769,164.029C132.689,162.983 132.565,163.01 133.105,162.127Z" style="fill:rgb(87,88,88);fill-opacity:0.26;"/>
        <path d="M14.2,62.159C13.903,62.837 13.606,63.515 13.309,64.193C13.606,63.515 13.903,62.837 14.2,62.159Z" style="fill:rgb(88,90,90);fill-opacity:0.29;"/>
        <path d="M12.589,66.264C12.642,67.281 12.765,67.235 12.313,68.174L12.589,66.264Z" style="fill:rgb(82,84,84);fill-opacity:0.27;"/>
        <path d="M278.237,93.304L278.05,93.947L277.147,94.147C277.51,93.866 277.873,93.585 278.237,93.304Z" style="fill:rgb(81,83,83);fill-opacity:0.18;"/>
        <path d="M379.205,156.104L379.804,156.448L380.136,157.147C379.826,156.799 379.515,156.452 379.205,156.104Z" style="fill:rgb(76,132,69);fill-opacity:0.14;"/>
    </g>
</svg>
