<?xml version="1.0" encoding="UTF-8" standalone="no"?>
<!DOCTYPE svg PUBLIC "-//W3C//DTD SVG 1.1//EN" "http://www.w3.org/Graphics/SVG/1.1/DTD/svg11.dtd">
<svg width="100%" height="100%" viewBox="0 0 439 235" version="1.1" xmlns="http://www.w3.org/2000/svg" xmlns:xlink="http://www.w3.org/1999/xlink" xml:space="preserve" xmlns:serif="http://www.serif.com/" style="fill-rule:evenodd;clip-rule:evenodd;stroke-linejoin:round;stroke-miterlimit:2;">
    <g>
        <path d="M404.068,120.942C412.751,120.848 412.984,120.279 413.895,121.355C415.047,122.715 412.99,143.65 415.278,144.799C417.592,145.961 438.132,142.818 438.288,147.111C438.453,151.66 439.171,157.246 436.159,157.305C415.754,157.702 414.18,156.435 414.109,159.132C413.576,179.427 414.489,179.417 414.199,181.154C413.885,183.036 405.436,182.274 404.115,182.227C402.439,180.799 403.475,180.323 403.003,160.132L402.942,157.27C397.569,154.68 383.001,158.461 379.789,155.284C379.825,152.174 379.861,149.064 379.897,145.954C380.297,145.591 380.698,145.227 381.098,144.864C382.699,144.877 400.992,145.02 401.116,144.971C403.374,144.084 402.819,143.54 402.982,141.141C403.239,136.094 403.123,136.167 402.963,131.119L402.983,130.136C403.284,125.114 403.216,123.701 403.19,123.142C403.126,121.81 403.136,121.804 404.067,120.941L404.068,120.942Z" style="fill:rgb(82,190,41);fill-opacity:0.98;"/>
    </g>
</svg>
